PathFileType	4	(X/Y/Z)	58_1_6_p0_0-466_filt_butterworth.trc
DataRate	CameraRate	NumFrames	NumMarkers	Units	OrigDataRate	OrigDataStartFrame	OrigNumFrames
56.0	56.0	6	27	m	56.0	233	466
Frame#	Time	RHip			RKnee			RAnkle			RBigToe			RSmallToe			RHeel			LHip			LKnee			LAnkle			LBigToe			LSmallToe			LHeel			Neck			Head			Nose			RShoulder			RElbow			RWrist			RThumb			RIndex			RPinky			LShoulder			LElbow			LWrist			LThumb			LIndex			LPinky			
		X1	Y1	Z1	X2	Y2	Z2	X3	Y3	Z3	X4	Y4	Z4	X5	Y5	Z5	X6	Y6	Z6	X7	Y7	Z7	X8	Y8	Z8	X9	Y9	Z9	X10	Y10	Z10	X11	Y11	Z11	X12	Y12	Z12	X13	Y13	Z13	X14	Y14	Z14	X15	Y15	Z15	X16	Y16	Z16	X17	Y17	Z17	X18	Y18	Z18	X19	Y19	Z19	X20	Y20	Z20	X21	Y21	Z21	X22	Y22	Z22	X23	Y23	Z23	X24	Y24	Z24	X25	Y25	Z25	X26	Y26	Z26	X27	Y27	Z27	
233	4.160714285714286	0.32000436484911543	0.4316015150982129	1.0597979080865634	0.3152616762047843	0.5750799388495403	1.4789927534529757	0.33589481435275614	0.7278506495397686	1.9033756127995605	0.2927399056125652	0.5873080660705576	1.9581074936695426	0.3527116499798639	0.590004833237393	1.9439180452526141	0.3071295013191979	0.8359176856440877	1.9807263857889963	0.1465433660109956	0.47068758748646866	1.070971154946728	0.13651205345538178	0.6352049657069482	1.4902632797789652	0.11090061343868891	0.7294263403301937	1.8910878476254658	0.12219251979176915	0.5700442592853949	1.9395217048964448	0.07498518890222144	0.5959448526259598	1.936137565773379	0.1277545680756405	0.7671937365563757	1.9349320413065665	0.2312600625730318	0.3856616871294618	0.5335333807996326	0.22420764719471686	0.302605435168269	0.3244632867041322	0.22782746802648307	0.27014425859146013	0.43684114944357344	0.3587580673884659	0.3879401066845225	0.6219195788806572	0.41317417462830885	0.33806354287560025	0.880839836638118	0.421576069734377	0.2881275884369923	0.7468542349577171	0.4159226256538527	0.3331596443612123	0.623583891954455	0.42433587157918445	0.3112430367222384	0.6179369199810909	0.44053282255527804	0.2521366353920933	0.6843814688421518	0.06775471548318454	0.4020641734448506	0.6187801800571029	0.021002971871981156	0.3378335531009401	0.8839346740369651	0.012910446432656975	0.2696419755391263	0.7201507822097799	0.03004706283472421	0.3054864735944098	0.6210611759204785	0.02334644953496784	0.22381820796371055	0.6130090473668142	0.01352558609676793	0.26038747112613403	0.6705758787912991
234	4.178571428571429	0.31954787389681233	0.43461810046853877	1.0612528431057413	0.31414930595196217	0.5786891828228573	1.4789277993414653	0.33590857588083467	0.727870466001848	1.9033822719386753	0.2927202285926652	0.5872791805572453	1.9581126563330429	0.3516887403331283	0.5944230755585925	1.9459493283001823	0.30714067270378315	0.8358973205085564	1.980743986260603	0.14698926359029263	0.4704783316420882	1.0704101858127693	0.13649664424835042	0.6353579659430344	1.4903093471154127	0.11089829471450244	0.7293977254945809	1.891092470579202	0.12220119270404231	0.5700226466381997	1.9395575395440736	0.07500137671398185	0.5958482796875354	1.9361442521398335	0.1277813309134997	0.7671884217555632	1.9349538711975627	0.23136244245404008	0.3856675456482669	0.5333903173071591	0.22401761910100199	0.3024221975139574	0.32489277990637994	0.22781429172895631	0.27009131110878065	0.4369012030834108	0.361729195911217	0.39235193325178175	0.6234115769978247	0.41622571761057514	0.34070654408555073	0.8850307212420558	0.4219046328235274	0.28479731916568185	0.752630276418251	0.41873764091379806	0.32244047080853155	0.6347112494271485	0.42618306288537255	0.2916751899061842	0.6260076929167085	0.44107651231990275	0.24573111621977206	0.6924977546591502	0.067788631559554	0.4015275640752886	0.6207293830042109	0.019296620038133427	0.33498422222574714	0.8864680454359231	0.009290286370134581	0.2688109353452517	0.7262509313272567	0.023752102747732318	0.2806636340914705	0.6200773331989956	0.02460293750501556	0.2130595911671908	0.6126469557300278	0.018040690893518927	0.24569359380796935	0.6712522065604716
235	4.196428571428571	0.3192840385998476	0.43642162292233433	1.0617705291092605	0.3125671440974294	0.5815344977922947	1.4787325042993802	0.33592618798601787	0.7278924846397133	1.9034013033836619	0.2927287991661592	0.587343802416813	1.9582422195126474	0.3503004801343363	0.6008238465667729	1.9488610890350286	0.30714256437361737	0.835841451281768	1.980807394350938	0.14753846244612548	0.4716878641678519	1.0695857761363898	0.13649803682170528	0.6352733044925609	1.4902844130635045	0.110900095119433	0.7293245966562487	1.8910327778943343	0.12219717970373195	0.570058711000876	1.9396122848360444	0.07500698965608055	0.5957860847484642	1.9361313031687841	0.1278356225159662	0.7671980521498769	1.9348629505333161	0.23143011668598681	0.385671862299628	0.5331000392405371	0.22386361208405123	0.3022480030605962	0.32516302167816113	0.22778513645788956	0.2700914006170695	0.43696409700698136	0.36667709990003505	0.3972129390545462	0.6249071438814552	0.41911544000973183	0.3438333550721843	0.8878899850273589	0.4226812671845088	0.2779790364047601	0.7625557011524526	0.42808299632706975	0.3051403363709653	0.645480694446955	0.4306015733867009	0.2579455674988754	0.6350143820405998	0.43923093684511916	0.22511096701926248	0.7009112045190561	0.067924187988342	0.4016221103370045	0.6216527928811298	0.01757732993603943	0.3340782247687956	0.889199938447818	0.007624600406417557	0.2673060355697957	0.7329525983101103	0.01924122001572571	0.26209337449421444	0.6182485301547379	0.02599298177746443	0.20570408669180884	0.6119231388789969	0.023288755911447148	0.22080715027976697	0.6697241383141377
236	4.214285714285714	0.31933841915005856	0.43666518517316044	1.0616873429732379	0.31142087325879003	0.58291776566818	1.4787936690348868	0.33593431788455863	0.727912810033368	1.9034161422172051	0.29275970042943944	0.5874362702971258	1.9583951556832961	0.3493615976140339	0.6055700284178398	1.9510206522693054	0.3071594729065571	0.8358297418398319	1.9808325135134912	0.14844321561107357	0.47522563455053535	1.0692974375796347	0.13648973837737963	0.6350342114719872	1.4902026502992956	0.11090151246269825	0.7292438820020167	1.8909475079553864	0.12219379442199507	0.5701251496636148	1.9396444221795235	0.07499426310482088	0.5957860944598716	1.936110228182534	0.12784637684579261	0.7669320198621977	1.9348764652829473	0.231042262841483	0.3858020439691652	0.5329546979229945	0.223721213882954	0.30209773974322934	0.3251824842533261	0.2277323297607699	0.2701076163251682	0.4369632125608096	0.3716455889603573	0.39980636478279075	0.6258351717682944	0.42095466874272247	0.345372897282298	0.8898086728275219	0.424510023244474	0.27108699473399345	0.7756359150418508	0.43819406215193474	0.28676918393962403	0.6547330309683946	0.43507807396532416	0.22389429779729939	0.6460145132806271	0.4339556617233163	0.19962471640387447	0.7131029409697176	0.06805090748488186	0.4023340159728267	0.6222701011018726	0.01567672598726769	0.33868337423485445	0.8926812959121001	0.00758570177169518	0.26643418088261017	0.739806539557823	0.020026583775524326	0.24452066472316233	0.6175694487935947	0.02807793039311601	0.196432399720387	0.6124757477282133	0.0269431870759886	0.19243930063247378	0.6686727467544807
237	4.232142857142857	0.3194964122975356	0.4364399737609938	1.0613484026451812	0.31140810753300746	0.5829353450375357	1.4788608887368406	0.3359272190113883	0.7279248629561652	1.903378921520697	0.29279177427332825	0.5875012219303027	1.9584758309664738	0.3491113016393754	0.6073117266438854	1.951803106537223	0.3072192957485893	0.8360030627077599	1.9805978404783642	0.14945390778445913	0.47979477986164404	1.0692341807541546	0.13642591111081345	0.6348229441481869	1.4901139136174737	0.11089856615171144	0.7291948405324361	1.8908882519541863	0.12220522588002881	0.5701987628496169	1.9396817441351994	0.07501240582357412	0.5958142868917784	1.936135760166875	0.1275964156575773	0.7662866104442863	1.9351985016340079	0.22963231203768258	0.38634129152984203	0.5336560392274967	0.22355263875224698	0.30205171090361904	0.32507330764030873	0.22768922957603233	0.27013210194314846	0.4369168991641212	0.37475653023784805	0.4003679622352757	0.6259695551677097	0.421865876373242	0.3457290379290565	0.8922515708513226	0.4264510329121031	0.26532362243984836	0.7873055231621857	0.44002118987961353	0.27270201252769044	0.660298211683271	0.4372167069939397	0.2012718245261611	0.6550984893561135	0.4282201085822714	0.1814372856586112	0.7252958114791647	0.0681193198468636	0.40316966252459274	0.6228474124069604	0.014401059094925235	0.3479380248425291	0.8972682420838269	0.008381468133915975	0.26661894750026344	0.7464464077641305	0.026376414662618513	0.22315255210905544	0.6203792970183323	0.03189882177993012	0.18384025075417235	0.6154637179540412	0.029379816350928366	0.16776518192905704	0.670620644676641
238	4.25	0.31963280581525344	0.43628236979467955	1.0610430720787358	0.3124814575818571	0.5809729917032412	1.4783459238739263	0.33591010725783266	0.7279144511795707	1.9032893643397193	0.29280200835329384	0.5875304355701667	1.958464301185269	0.3491923006497814	0.607296161504531	1.9517517410192193	0.30733167791236826	0.8363402554317143	1.9800635908798574	0.15007148861335026	0.482975388909845	1.0690288538409676	0.13629749946521086	0.6347287900466089	1.4900596538283255	0.11088537748011507	0.7291893611337076	1.8908523356619686	0.12224063078650205	0.5702425444370128	1.9397549396979716	0.07510542478406862	0.5958474102776069	1.9362588996694212	0.12681334538549566	0.7656849397465777	1.9354967910274188	0.22733631080683278	0.38715064821844025	0.5356822997646662	0.2233478265471397	0.3020555210010849	0.3249563777327815	0.22767531020677115	0.27022133611282034	0.4369661159444512	0.3755558469481886	0.40100341383676674	0.6257050617242362	0.4223740547432257	0.34777760609007685	0.8954203835067914	0.4263913885621009	0.26223325335238773	0.793838472159594	0.4328749482845573	0.26857733216887103	0.6633588712230163	0.4367755532665035	0.1941953148229163	0.6592086260762151	0.4260681316964223	0.17665648713917692	0.7323442357329399	0.06805359257880392	0.40370852975001814	0.6231493913425599	0.014199884500117273	0.3589238158688323	0.9021858243068775	0.009253043270514546	0.26798441016433944	0.7537269087507406	0.035117137246934535	0.20374072152604616	0.6295735832635017	0.03672596069174964	0.1732974610460328	0.6233122518722198	0.03198870981178248	0.15372531446062057	0.6777446460794257
